<svg id="SvgjsSvg1026" width="288" height="288" xmlns="http://www.w3.org/2000/svg" version="1.1" xmlns:xlink="http://www.w3.org/1999/xlink" xmlns:svgjs="http://svgjs.com/svgjs"><defs id="SvgjsDefs1027"></defs><g id="SvgjsG1028"><svg xmlns="http://www.w3.org/2000/svg" width="288" height="288" viewBox="0 0 512.039 511.999"><path d="M439.448,115.0074a8,8,0,0,1-5.656-2.344l-34.456-34.456a8,8,0,0,1,0-11.312L456.8,9.4794a32.3519,32.3519,0,0,1,45.7526-.0074l.0074.0074a32.3519,32.3519,0,0,1,.0074,45.7526l-.0074.0074-57.416,57.424a8,8,0,0,1-5.696,2.344Zm-23.144-42.456,23.144,23.144L491.2,43.9274a16.36,16.36,0,0,0,0-23.136,16.752,16.752,0,0,0-23.136,0Z" fill="#8f3e28" class="color000 svgShape"></path><path d="M370.536,165.6874a24.232,24.232,0,0,1-17.136-41.368l51.68-51.68,11.312,11.312-51.68,51.68a8.24,8.24,0,0,0-.0029,11.6531l.0029.0029a8.44,8.44,0,0,0,11.656,0l51.68-51.68,11.312,11.312-51.68,51.68a24.1685,24.1685,0,0,1-17.1441,7.088Z" fill="#8f3e28" class="color000 svgShape"></path><path d="M274.08 271.9194a33.7279 33.7279 0 01-24-9.96 34.1118 34.1118 0 01-8.32-35.08l48.76-110.08 14.624 6.48-48.48 109.416a18.3361 18.3361 0 0023.4 22.4l138.768-61.536a19.8882 19.8882 0 007.864-4.696 18.296 18.296 0 000-25.84l-27.352-27.352 11.312-11.312 27.352 27.344a34.28 34.28 0 01-13.4 56.76l-138.776 61.504A36.8555 36.8555 0 01274.08 271.9194zM376.368 112.6634l-27.36-27.352a18.296 18.296 0 00-25.848 0 18.5286 18.5286 0 00-4.416 7.144l-6.512 14.784-14.632-6.488 6.232-14.072a33.2473 33.2473 0 018-12.68 34.3279 34.3279 0 0148.488 0l27.352 27.352zM152 511.9994H24a24 24 0 01-24-24v-48a24 24 0 0124-24h88v16H24a8 8 0 00-8 8v48a8 8 0 008 8H152a8 8 0 008-8v-48a8 8 0 00-8-8H128v-16h24a24 24 0 0124 24v48A24 24 0 01152 511.9994z" fill="#8f3e28" class="color000 svgShape"></path><path d="M328,511.9994H184a24,24,0,0,1-24-24v-48a24,24,0,0,1,24-24H328a24,24,0,0,1,24,24v48A24,24,0,0,1,328,511.9994Zm-144-80a8,8,0,0,0-8,8v48a8,8,0,0,0,8,8H328a8,8,0,0,0,8-8v-48a8,8,0,0,0-8-8Z" fill="#8f3e28" class="color000 svgShape"></path><path d="M240,431.9994H128v-16H240a8,8,0,0,0,8-8v-48a8,8,0,0,0-8-8H96a8,8,0,0,0-8,8v48a8,8,0,0,0,8,8h16v16H96a24,24,0,0,1-24-24v-48a24,24,0,0,1,24-24H240a24,24,0,0,1,24,24v48A24,24,0,0,1,240,431.9994Z" fill="#8f3e28" class="color000 svgShape"></path><path d="M416,431.9994H272a24,24,0,0,1-24-24v-48a24,24,0,0,1,24-24h32v16H272a8,8,0,0,0-8,8v48a8,8,0,0,0,8,8H416a8,8,0,0,0,8-8v-48a8,8,0,0,0-8-8H376v-16h40a24,24,0,0,1,24,24v48A24,24,0,0,1,416,431.9994Z" fill="#8f3e28" class="color000 svgShape"></path><path d="M488 511.9994H392v-16h96a8 8 0 008-8v-48a8 8 0 00-8-8H360a8 8 0 00-8 8v48a8 8 0 008 8h16v16H360a24 24 0 01-24-24v-48a24 24 0 0124-24H488a24 24 0 0124 24v48A24 24 0 01488 511.9994zM152 351.9994H24a24 24 0 01-24-24v-48a24 24 0 0124-24H152a24 24 0 0124 24v48A24 24 0 01152 351.9994zm-128-80a8 8 0 00-8 8v48a8 8 0 008 8H152a8 8 0 008-8v-48a8 8 0 00-8-8z" fill="#8f3e28" class="color000 svgShape"></path><path d="M304 351.9994H184a24 24 0 01-24-24v-48a24 24 0 0124-24h48v16H184a8 8 0 00-8 8v48a8 8 0 008 8H304zM328 351.9994h-8v-16h8a8 8 0 008-8v-48a8 8 0 00-8-8h-8v-16h8a24 24 0 0124 24v48A24 24 0 01328 351.9994z" fill="#8f3e28" class="color000 svgShape"></path><path d="M488 351.9994H360a24 24 0 01-24-24v-48a24 24 0 0124-24h96v16H360a8 8 0 00-8 8v48a8 8 0 008 8H488a8 8 0 008-8v-48a8 8 0 00-8-8H472v-16h16a24 24 0 0124 24v48A24 24 0 01488 351.9994zM152 191.9994H24a24 24 0 01-24-24v-48a24 24 0 0124-24H40v16H24a8 8 0 00-8 8v48a8 8 0 008 8H152a8 8 0 008-8v-48a8 8 0 00-8-8H88v-16h64a24 24 0 0124 24v48A24 24 0 01152 191.9994z" fill="#8f3e28" class="color000 svgShape"></path><path d="M56 95.9994H72v16H56zM64 431.9994H8a8 8 0 01-8-8v-80a8 8 0 018-8H64a24 24 0 0124 24v48A24 24 0 0164 431.9994zm-48-16H64a8 8 0 008-8v-48a8 8 0 00-8-8H16zM224 175.9994h16v16H224zM240 271.9994H96a24 24 0 01-24-24v-48a24 24 0 0124-24H208v16H96a8 8 0 00-8 8v48a8 8 0 008 8H240z" fill="#8f3e28" class="color000 svgShape"></path><path d="M64 271.9994H8a8 8 0 01-8-8v-80a8 8 0 018-8H64a24 24 0 0124 24v48A24 24 0 0164 271.9994zm-48-16H64a8 8 0 008-8v-48a8 8 0 00-8-8H16zM504 431.9994H448a24 24 0 01-24-24v-48a24 24 0 0124-24h56a8 8 0 018 8v80A8 8 0 01504 431.9994zm-56-80a8 8 0 00-8 8v48a8 8 0 008 8h48v-64z" fill="#8f3e28" class="color000 svgShape"></path></svg></g></svg>