<svg id="SvgjsSvg1041" width="288" height="288" xmlns="http://www.w3.org/2000/svg" version="1.1" xmlns:xlink="http://www.w3.org/1999/xlink" xmlns:svgjs="http://svgjs.com/svgjs"><defs id="SvgjsDefs1042"></defs><g id="SvgjsG1043"><svg xmlns="http://www.w3.org/2000/svg" width="288" height="288" viewBox="0 0 510.99 511.001"><path d="M510.9542,500.1667,498.2759,350.7128a38.3266,38.3266,0,0,0-38.4171-35.2943H406.202l7.8791-87.5983a39.0167,39.0167,0,1,0-77.6568-.0039l7.8831,87.6022H290.6505a38.3238,38.3238,0,0,0-38.417,35.2943L246.23,421.469l-17.6062-30.9473a9.99,9.99,0,0,0,.6783-3.6257V361.27a37.7692,37.7692,0,0,0-24.0233-35.1383V305.7772a29.7479,29.7479,0,0,0-29.7154-29.7153h-4.1754V217.524a9.9805,9.9805,0,1,0-19.961,0v58.5379H120.5105V68.7211h30.9161v58.534a9.98,9.98,0,1,0,19.961,0V9.9805a9.98,9.98,0,0,0-9.98-9.98H110.53A9.9822,9.9822,0,0,0,100.55,9.9805V276.0619H96.3741a29.748,29.748,0,0,0-29.7154,29.7153V326.132A37.7657,37.7657,0,0,0,42.6393,361.27V386.896a10.0124,10.0124,0,0,0,.6,3.4308L8.4015,449.2935a31.9393,31.9393,0,0,0,46.1208,44.1754,9.98,9.98,0,0,0,.99-1.154q.4679,1.0233,1.0136,2.0156a31.9657,31.9657,0,0,0,53.7582,3.6842,31.9091,31.9091,0,0,0,51.3683,0,31.9393,31.9393,0,0,0,54.76-5.7154,9.9023,9.9023,0,0,0,1.0019,1.17c6.4639,6.46,14.2651,9.6374,22.2651,9.345a9.975,9.975,0,0,0,9.8167,8.1754H501.0088a9.9707,9.9707,0,0,0,9.9454-10.8226ZM120.5105,19.961h30.9161V48.76H120.5105ZM356.3073,226.0269a19.0578,19.0578,0,1,1,37.8947.0039l-8.0429,89.3877H364.3463ZM86.62,305.7772a9.7694,9.7694,0,0,1,9.7583-9.7544h79.185a9.766,9.766,0,0,1,9.7544,9.7544v17.7817H86.62ZM62.5964,361.27a17.7707,17.7707,0,0,1,17.75-17.7505H191.5942A17.7674,17.7674,0,0,1,209.3407,361.27v15.6491H62.5964ZM232.14,479.9406l-20.651-30.3625a9.98,9.98,0,0,0-17.8245,8.4328l5.1968,17.6529a11.9791,11.9791,0,1,1-22.9824,6.7681l-8.3781-28.4483a9.9809,9.9809,0,0,0-19.5556,2.8187v22.2533a11.9785,11.9785,0,0,1-23.957,0V456.8023a9.9808,9.9808,0,0,0-19.5555-2.8187l-8.3743,28.4483a11.9791,11.9791,0,0,1-22.9824-6.7681l5.1969-17.6529a9.98,9.98,0,0,0-17.8246-8.4328L39.8206,479.9055a11.9791,11.9791,0,0,1-16.3548-17.4892,9.9483,9.9483,0,0,0,1.5361-1.9805l37.5516-63.5593h146.721l33.6919,59.224c.0936.16.1871.3158.2846.4679l-2.2027,25.9648C237.8748,483.426,235.0327,482.5878,232.14,479.9406Zm75.2085,11.0916,7.61-106.6352H435.5509l7.61,106.6352Zm155.8242,0-8.3742-117.3253a9.9838,9.9838,0,0,0-9.9571-9.2709H305.6642a9.9773,9.9773,0,0,0-9.9532,9.2709l-8.3743,117.3253H260.3621L272.12,352.4009a18.4909,18.4909,0,0,1,18.53-17.0253H459.8549a18.4855,18.4855,0,0,1,18.53,17.0253l11.7621,138.6313Z" fill="#8f3e28" class="color000 svgShape"></path><path d="M161.411,182.1907a9.9845,9.9845,0,1,1,9.7817-8.0351A10.0767,10.0767,0,0,1,161.411,182.1907Z" fill="#8f3e28" class="color000 svgShape"></path></svg></g></svg>