<svg id="SvgjsSvg1053" width="288" height="288" xmlns="http://www.w3.org/2000/svg" version="1.1" xmlns:xlink="http://www.w3.org/1999/xlink" xmlns:svgjs="http://svgjs.com/svgjs"><defs id="SvgjsDefs1054"></defs><g id="SvgjsG1055"><svg xmlns="http://www.w3.org/2000/svg" width="288" height="288" viewBox="0 0 512 512"><path d="M310,190a10,10,0,1,0,10,10A10.0036,10.0036,0,0,0,310,190Z" fill="#8f3e28" class="color000 svgShape"></path><path d="M500.281,443.719l-133.48-133.48A198.2043,198.2043,0,0,0,400,200C400,89.72,310.28,0,200,0S0,89.72,0,200,89.72,400,200,400a198.2145,198.2145,0,0,0,110.239-33.198l36.895,36.895.016.016,96.568,96.568a39.9957,39.9957,0,1,0,56.563-56.562ZM305.536,345.727l-.002.002A178.459,178.459,0,0,1,200,380c-99.252,0-180-80.748-180-180S100.748,20,200,20s180,80.748,180,180a178.4583,178.4583,0,0,1-34.272,105.535A180.8721,180.8721,0,0,1,305.536,345.727Zm20.98,9.066a200.6744,200.6744,0,0,0,28.277-28.277l28.371,28.371a242.7331,242.7331,0,0,1-28.277,28.277ZM486.139,486.139a19.9849,19.9849,0,0,1-28.278,0l-88.795-88.795a262.7754,262.7754,0,0,0,28.277-28.277l88.798,88.798a19.9825,19.9825,0,0,1-.002,28.274Z" fill="#8f3e28" class="color000 svgShape"></path><path d="M200,40C111.775,40,40,111.775,40,200s71.775,160,160,160,160-71.775,160-160S288.225,40,200,40Zm0,300c-77.196,0-140-62.804-140-140S122.804,60,200,60s140,62.804,140,140S277.196,340,200,340Z" fill="#8f3e28" class="color000 svgShape"></path><path d="M312.065,157.073A120.1888,120.1888,0,0,0,200,80a10,10,0,0,0,0,20,100.6829,100.6829,0,0,1,93.396,64.247,10,10,0,1,0,18.669-7.174Z" fill="#8f3e28" class="color000 svgShape"></path></svg></g></svg>